<svg xmlns="http://www.w3.org/2000/svg" aria-hidden="true" version="1.0"
 width="1024" height="1024" viewBox="0 0 1024 1024"
 preserveAspectRatio="xMidYMid meet">
  <defs>
    <linearGradient id="resistBrandGrad" x1="0" y1="0" x2="1" y2="1">
      <stop offset="0%" stop-color="#1de9b6"/>
      <stop offset="100%" stop-color="#00bcd4"/>
    </linearGradient>
  </defs>
  <rect width="1024" height="1024" rx="160" fill="#0b0f14"/>

  <!-- Выше центра, как в оригинальном макете (кулак «сидит» в верхней половине квадрата) -->
  <g transform="translate(0,-172)">
<g transform="translate(0.000000,1024.000000) scale(0.100000,-0.100000)"
fill="url(#resistBrandGrad)" stroke="none">
<path d="m5238 3124 c152 -97 283 -182 291 -190 17 -16 23 -5 -247 -397 -102
-148 -190 -271 -197 -273 -6 -3 -97 35 -201 84 -104 49 -251 117 -326 152
-120 55 -136 65 -128 80 5 10 83 116 173 236 89 121 205 279 257 352 51 72 95
132 97 132 2 0 129 -79 281 -176z m720 -470 c163 -108 300 -199 304 -203 4 -4
-31 -60 -79 -126 -48 -66 -185 -256 -304 -422 l-217 -303 -6 128 c-4 70 -10
156 -14 192 l-7 65 -218 108 -219 108 25 32 c27 36 330 470 391 560 22 31 41
57 43 57 3 0 138 -88 301 -196z m-1662 -168 c55 -24 189 -85 299 -136 110 -50
250 -114 310 -142 122 -56 336 -155 494 -229 57 -27 107 -49 111 -49 5 0 11
-21 14 -47 8 -68 28 -414 24 -419 -7 -6 -530 -134 -550 -134 -11 0 -40 12 -66
27 -113 66 -416 265 -449 296 -27 24 -27 24 -7 -37 15 -45 15 -50 -2 -89 -21
-47 -99 -187 -162 -291 -23 -37 -42 -70 -42 -72 0 -2 40 -31 89 -63 92 -60
115 -70 506 -217 127 -47 235 -91 241 -97 6 -7 32 -57 57 -112 114 -252 342
-737 513 -1094 41 -85 72 -156 69 -159 -3 -3 -5 0 -5 7 0 7 -4 9 -10 6 -6 -4
-7 1 -3 11 4 11 2 15 -7 12 -8 -2 -22 4 -32 14 -10 10 -24 18 -30 18 -9 0 -8
-4 2 -10 9 -6 10 -10 3 -10 -7 0 -17 9 -23 21 -10 17 -14 18 -28 7 -9 -7 -13
-8 -10 -3 4 6 3 17 -3 25 -6 10 -9 11 -9 3 0 -7 -7 -13 -15 -13 -8 0 -15 6
-15 13 0 8 -3 8 -9 -2 -8 -12 -12 -12 -25 -2 -11 9 -16 10 -16 2 0 -6 -5 -11
-11 -11 -5 0 -7 5 -3 11 4 7 -1 7 -16 -1 -15 -8 -20 -8 -16 -1 12 20 -5 12
-25 -11 l-20 -23 12 25 c7 14 17 29 23 33 7 5 2 7 -11 4 -14 -3 -28 2 -39 14
-9 10 -22 19 -28 18 -6 0 -6 -3 2 -6 7 -2 17 -13 22 -24 9 -15 7 -19 -5 -19
-9 0 -13 5 -10 10 3 6 -1 10 -9 10 -8 0 -14 -6 -12 -12 1 -7 1 -10 -1 -5 -3 4
-11 7 -19 7 -9 0 -13 -4 -9 -9 3 -5 0 -13 -6 -17 -7 -4 -9 -3 -6 3 4 6 -7 16
-24 22 -29 10 -31 9 -26 -9 3 -11 0 -23 -6 -27 -7 -3 -9 -2 -4 2 4 5 -1 18
-10 29 -10 12 -14 18 -9 14 5 -4 15 -3 22 3 9 7 19 7 33 -1 14 -7 21 -7 21 0
0 12 -2 12 -52 15 -21 1 -38 -2 -38 -8 0 -6 -3 -7 -6 -4 -4 4 -2 13 5 21 9 11
8 14 -6 12 -12 0 -19 7 -21 21 -3 19 -6 21 -23 13 -11 -6 -19 -7 -18 -3 4 25
-2 43 -13 37 -22 -14 -57 -13 -69 2 -8 10 -8 14 0 14 6 0 11 -5 11 -12 0 -6 3
-8 6 -5 4 4 1 13 -6 22 -9 11 -17 12 -31 4 -11 -5 -17 -14 -15 -18 3 -4 -1 -8
-9 -8 -8 0 -12 4 -9 9 5 7 -18 13 -39 9 -5 -1 -5 3 -2 9 4 6 12 9 18 7 7 -2
20 2 30 11 9 8 17 10 17 4 0 -6 -6 -13 -12 -15 -10 -4 -10 -6 -1 -6 17 -1 27
19 15 31 -6 6 -19 5 -38 -5 -33 -17 -54 -12 -55 11 -1 10 -4 7 -9 -8 l-8 -25
-1 25 c-1 14 -4 20 -9 14 -4 -6 -18 -16 -32 -23 l-25 -12 24 20 23 21 -26 0
c-14 0 -26 -4 -26 -9 0 -5 -8 -12 -17 -15 -13 -6 -12 -1 5 17 18 19 31 23 60
21 28 -2 32 -1 17 6 -11 5 -16 9 -11 9 20 2 -25 37 -49 39 -19 1 -29 -5 -37
-23 -15 -33 -24 -32 -23 3 0 20 -5 27 -17 26 -10 -1 -18 2 -18 7 0 5 6 9 13
10 10 0 10 2 0 6 -7 2 -13 11 -13 18 0 8 -4 17 -10 20 -6 4 -7 -1 -3 -10 3
-10 0 -21 -8 -26 -10 -6 -10 -9 -1 -9 6 0 12 -5 12 -11 0 -19 -25 -3 -26 17
-1 10 -2 25 -3 32 -1 6 -6 12 -12 12 -5 0 -7 -5 -3 -11 4 -8 1 -8 -12 -1 -11
5 -24 7 -31 5 -6 -2 -14 0 -17 5 -3 5 8 8 24 7 35 -2 35 -3 14 36 -15 29 -16
30 -30 12 -9 -10 -13 -13 -10 -6 4 6 -5 20 -19 32 -23 17 -24 22 -14 40 11 17
10 22 -12 39 l-24 20 24 21 c31 27 22 27 -24 0 -20 -12 -35 -18 -34 -13 4 23
-2 35 -17 32 -10 -2 -19 3 -22 11 -2 8 0 11 5 8 5 -3 10 -1 10 6 0 7 -11 13
-24 13 -13 1 -23 -2 -23 -7 0 -5 5 -9 10 -9 6 0 10 -9 10 -20 0 -11 -4 -20
-10 -20 -5 0 -6 7 -3 17 4 11 3 14 -6 9 -6 -4 -11 -4 -10 1 4 22 -3 30 -26 28
-14 -2 -27 0 -30 4 -2 5 11 7 31 6 19 -1 37 2 40 6 2 5 12 6 22 3 15 -5 15 -5
-1 6 -9 6 -20 9 -25 7 -9 -6 -33 19 -25 27 4 3 -1 6 -11 6 -19 0 -58 -18 -66
-31 -7 -11 -83 15 -88 30 -2 6 2 11 10 11 10 0 9 3 -2 10 -8 5 -12 11 -9 14 2
3 11 1 19 -4 11 -7 11 -11 1 -24 -12 -14 -10 -16 8 -16 11 0 24 0 27 1 4 0 10
-4 13 -10 5 -7 18 0 36 19 16 16 23 30 17 30 -7 0 -12 -5 -12 -11 0 -5 -4 -7
-10 -4 -5 3 -10 1 -10 -4 0 -6 -5 -11 -11 -11 -5 0 -7 4 -4 10 3 5 0 7 -8 4
-8 -3 -18 -1 -22 5 -3 6 1 11 9 11 10 0 13 6 9 17 -4 11 -8 12 -11 5 -2 -7
-13 -12 -23 -12 -11 0 -18 4 -15 9 4 5 -2 7 -12 4 -11 -2 -26 3 -35 11 -16 16
-32 22 -24 9 3 -5 -2 -14 -10 -22 -13 -12 -14 -11 -9 6 9 29 -17 36 -38 12 -9
-11 -14 -25 -10 -32 5 -9 4 -9 -6 0 -11 10 -11 16 4 32 16 18 16 19 -1 25 -10
4 -19 3 -21 -3 -2 -5 -12 -2 -22 6 -10 9 -17 21 -14 25 11 18 11 58 0 58 -6 0
-4 5 4 10 11 7 11 10 2 10 -7 0 -11 4 -8 9 8 12 -18 21 -33 11 -9 -5 -6 -9 11
-15 l23 -7 -25 -8 c-21 -7 -12 -15 13 -11 4 0 7 -4 7 -10 0 -6 -9 -8 -20 -4
-12 4 -20 2 -20 -5 0 -6 -5 -8 -11 -4 -7 4 -7 9 -1 13 5 3 8 15 6 26 -2 10 2
25 8 33 8 9 8 15 0 23 -7 5 -10 6 -7 3 2 -4 -2 -13 -10 -21 -13 -13 -17 -13
-30 1 -9 9 -11 17 -5 21 5 3 10 1 10 -5 0 -6 5 -8 10 -5 6 4 8 11 5 16 -4 5
-1 9 4 9 6 0 11 4 11 8 0 5 -13 7 -30 4 -19 -3 -30 0 -30 8 0 7 8 10 20 7 11
-3 23 -1 26 4 3 5 -1 10 -8 10 -7 1 -22 3 -33 4 -65 6 -62 4 -42 19 14 11 15
15 5 19 -10 4 -10 8 2 17 12 8 8 9 -15 4 -57 -11 -65 -15 -65 -30 0 -8 5 -12
10 -9 6 3 10 -1 10 -11 0 -11 6 -15 19 -11 10 2 25 1 32 -4 10 -6 7 -9 -11 -9
-20 0 -22 -2 -10 -10 10 -6 11 -10 3 -10 -7 0 -22 9 -33 20 -11 11 -20 16 -20
10 0 -5 -5 -10 -11 -10 -6 0 -8 7 -5 17 4 10 4 14 0 10 -11 -11 -34 13 -34 35
0 16 -2 17 -14 6 -8 -7 -10 -14 -5 -16 5 -2 9 -8 9 -13 0 -6 -6 -7 -12 -3 -9
6 -9 3 0 -9 8 -9 19 -15 25 -14 7 1 11 -4 9 -12 -2 -9 5 -12 22 -9 14 3 23 2
21 -3 -3 -4 -1 -10 4 -14 14 -8 9 -44 -8 -50 -8 -3 -18 0 -23 7 -6 10 -10 10
-19 -2 -9 -13 -10 -13 -6 2 4 12 0 16 -14 15 -21 -1 -25 -12 -9 -22 6 -3 10
-13 10 -21 0 -8 -4 -12 -10 -9 -5 3 -10 1 -10 -5 0 -7 8 -9 20 -5 23 7 26 -4
8 -24 -10 -11 -10 -13 0 -7 6 4 12 2 12 -5 0 -8 4 -8 15 1 10 8 15 9 15 2 0
-7 7 -9 17 -5 15 6 16 5 3 -9 -8 -9 -18 -12 -21 -6 -3 5 -12 1 -20 -8 -8 -10
-9 -15 -2 -11 6 4 18 1 26 -8 13 -12 17 -13 27 0 9 11 15 11 24 2 10 -9 9 -18
-7 -45 -14 -23 -15 -32 -6 -30 7 2 13 -3 14 -11 0 -8 6 -16 13 -18 17 -6 15 7
-4 28 -10 11 -12 19 -5 24 6 3 11 -1 11 -11 0 -13 3 -14 13 -5 18 14 30 2 16
-16 -9 -9 -8 -13 0 -13 6 0 11 -5 11 -10 0 -6 -7 -10 -16 -8 -10 2 -19 -2 -21
-9 -3 -8 3 -11 16 -8 12 2 21 0 21 -6 0 -5 -13 -9 -30 -9 -16 0 -30 -4 -30 -9
0 -5 9 -7 20 -4 12 3 20 0 20 -6 0 -7 5 -9 10 -6 17 10 11 -7 -7 -20 -14 -11
-13 -13 13 -19 18 -5 30 -3 32 3 2 6 11 11 20 11 14 -1 13 -4 -5 -19 -17 -14
-19 -21 -10 -30 9 -9 8 -14 -3 -21 -13 -8 -13 -10 2 -10 22 0 34 20 18 30 -7
4 -8 10 -3 13 6 4 16 -5 23 -18 7 -14 17 -25 22 -25 11 0 -9 -22 -37 -39 -19
-12 -19 -12 3 -8 12 3 22 1 22 -4 0 -5 6 -9 13 -9 6 0 23 -10 37 -21 14 -11
19 -18 11 -14 -7 4 -17 2 -22 -6 -6 -10 -9 -8 -9 9 0 22 -1 23 -17 6 -13 -13
-14 -19 -5 -22 6 -2 12 -10 12 -17 0 -17 17 -23 58 -20 17 1 32 -3 32 -8 0 -5
-9 -7 -21 -4 -23 6 -49 -1 -49 -13 0 -5 9 -7 21 -5 16 3 19 0 15 -12 -4 -11
-2 -14 9 -9 15 5 19 -5 16 -33 -2 -7 2 -10 8 -6 6 3 11 1 11 -5 0 -6 5 -8 10
-5 14 9 12 -8 -2 -24 -7 -8 -8 -11 -2 -8 13 8 57 -27 47 -37 -3 -3 -1 -6 7 -6
10 0 10 -3 1 -14 -7 -9 -8 -17 -2 -20 5 -3 12 0 14 6 3 7 6 -1 6 -19 1 -17 7
-34 14 -36 9 -4 9 -8 -1 -15 -11 -7 -11 -10 3 -15 9 -4 13 -3 10 3 -3 6 -1 10
4 10 6 0 11 -10 12 -22 0 -13 3 -17 6 -10 2 6 9 10 13 7 5 -3 7 -12 3 -20 -3
-8 0 -15 7 -15 10 0 10 -3 0 -15 -7 -9 -10 -18 -6 -22 3 -3 6 0 6 8 0 8 5 6
14 -7 8 -11 13 -32 12 -46 -2 -16 4 -33 17 -43 17 -15 19 -15 14 -2 -3 9 -2
19 2 22 10 6 23 -23 16 -35 -9 -14 15 -22 30 -10 11 9 12 7 8 -9 -3 -13 -1
-21 8 -21 7 0 9 -3 6 -6 -4 -4 -13 -1 -21 5 -13 11 -13 9 -3 -12 6 -14 15 -23
19 -21 5 3 8 -2 8 -11 0 -9 5 -13 10 -10 14 8 13 -8 -1 -22 -9 -9 -6 -11 12
-7 19 5 21 4 9 -5 -12 -9 -11 -11 9 -11 24 0 24 -1 5 -14 -18 -14 -18 -15 7
-21 20 -5 26 -12 25 -33 -1 -19 6 -31 24 -40 14 -7 17 -10 8 -8 -12 4 -15 0
-11 -10 3 -7 9 -14 14 -14 5 0 9 -5 9 -11 0 -5 -4 -7 -10 -4 -14 9 -13 -8 2
-23 7 -7 8 -12 2 -12 -5 0 -2 -5 6 -10 13 -8 13 -11 1 -19 -11 -7 -10 -11 5
-20 16 -9 17 -12 4 -20 -13 -9 -12 -12 5 -25 19 -13 19 -15 3 -21 -10 -4 -18
-14 -18 -22 0 -8 5 -11 10 -8 6 3 10 2 10 -4 0 -5 -6 -12 -12 -14 -9 -4 -7 -6
3 -6 9 -1 16 -7 16 -15 0 -8 -8 -12 -21 -9 -14 3 -17 2 -9 -4 7 -5 11 -17 9
-28 -2 -11 4 -23 13 -26 14 -6 13 -8 -4 -15 -13 -6 -20 -19 -21 -36 0 -15 4
-25 8 -22 4 3 8 0 8 -5 0 -6 -4 -11 -10 -11 -5 0 -7 -7 -3 -16 3 -9 0 -20 -8
-25 -12 -7 -12 -9 1 -9 13 0 13 -1 0 -10 -12 -8 -13 -11 -1 -19 10 -6 6 -11
-15 -19 -23 -8 -24 -11 -9 -12 17 0 18 -2 5 -13 -19 -15 -19 -45 0 -58 12 -9
12 -10 -4 -5 -15 5 -17 2 -13 -14 3 -11 0 -20 -6 -20 -8 0 -7 -3 1 -9 17 -10
14 -22 -8 -38 -10 -7 -18 -26 -18 -45 0 -18 -1 -35 -2 -38 -7 -20 -5 -50 4
-51 6 0 2 -4 -9 -9 -11 -5 -14 -9 -7 -9 9 -1 10 -6 2 -21 -22 -44 -26 -57 -29
-94 -2 -22 -8 -51 -13 -65 -11 -26 -17 -60 -19 -93 0 -10 -4 -18 -8 -18 -4 0
-7 -19 -6 -42 1 -24 -2 -49 -8 -55 -5 -7 -11 -32 -14 -55 -8 -83 -10 -95 -17
-106 -4 -7 -4 -16 -1 -22 3 -5 1 -10 -5 -10 -6 0 -9 -4 -6 -8 3 -5 -3 -44 -14
-88 -10 -43 -16 -83 -13 -88 4 -5 1 -6 -5 -2 -8 5 -12 -3 -12 -23 0 -17 -4
-31 -9 -31 -5 0 -8 -12 -8 -26 0 -15 -5 -29 -11 -33 -5 -3 -13 -22 -16 -41
-11 -59 -24 -106 -25 -87 -1 24 79 654 119 927 10 74 30 218 44 320 14 102 35
254 46 339 21 153 21 154 2 181 -30 40 -300 413 -742 1025 -360 498 -472 653
-541 746 -44 58 -79 111 -79 116 0 5 74 117 164 249 303 441 548 797 706 1024
85 124 167 242 180 262 14 21 28 38 31 38 4 0 51 -20 105 -44z m2247 -269
c100 -73 230 -168 290 -211 59 -42 107 -81 107 -86 0 -7 -876 -1105 -957
-1198 l-28 -33 -144 97 c-80 53 -201 133 -270 177 -69 43 -127 81 -129 82 -2
2 16 27 40 57 24 29 91 118 149 198 220 301 537 741 643 892 61 87 112 157
114 158 1 0 85 -60 185 -133z m688 -689 c129 -133 234 -247 234 -254 0 -7 -81
-104 -181 -216 -99 -112 -223 -251 -275 -309 -97 -109 -309 -342 -421 -462
l-63 -68 -156 133 c-86 73 -188 160 -227 193 -39 33 -71 64 -71 68 -1 5 75
101 167 215 195 240 564 703 672 844 41 53 78 97 81 97 3 1 111 -108 240 -241z
m-5 -815 c-7 -80 -39 -387 -66 -623 -32 -279 -122 -553 -245 -746 -54 -85
-173 -228 -252 -304 l-67 -65 55 60 c30 33 68 78 84 100 17 22 34 43 38 46 5
3 10 12 11 20 2 8 9 28 16 44 7 17 14 32 14 35 1 3 14 17 29 33 16 15 25 32
22 37 -3 6 -1 10 4 10 6 0 10 6 8 13 -1 6 3 11 10 10 7 -2 10 3 7 11 -3 8 -1
17 5 20 6 4 7 14 4 23 -4 11 -3 14 5 9 11 -7 16 5 13 31 -1 6 8 15 20 18 16 5
18 9 9 15 -10 6 -8 15 9 39 12 17 20 35 17 40 -4 5 1 16 10 25 8 9 13 20 9 25
-3 6 3 14 12 20 10 6 13 11 7 11 -6 0 -11 7 -11 15 0 8 4 12 9 9 4 -3 8 -1 8
5 0 5 -5 13 -10 16 -7 4 -5 14 4 27 8 11 12 27 9 34 -3 8 0 14 6 14 15 0 14
43 -1 58 -8 8 -8 15 2 27 12 14 11 18 -1 27 -12 8 -12 10 0 15 11 5 11 7 0 14
-12 8 -12 10 0 18 10 7 11 13 2 30 -7 12 -8 21 -2 21 5 0 7 10 4 23 -3 12 -6
33 -8 47 -1 14 -7 24 -12 23 -5 -1 -10 7 -10 18 -1 11 2 17 6 15 4 -3 8 1 8 8
0 9 -13 12 -43 9 -24 -1 -45 1 -49 6 -3 6 4 8 15 6 11 -2 20 0 20 4 0 12 -61
18 -91 10 -13 -4 -18 -7 -11 -8 6 -1 12 -5 12 -11 0 -5 -14 -7 -32 -4 -19 3
-28 2 -22 -3 9 -6 8 -11 -2 -21 -11 -10 -14 -10 -14 0 -1 9 -4 8 -13 -3 -7 -9
-18 -14 -24 -12 -7 3 -13 0 -13 -5 0 -6 6 -13 13 -15 7 -3 5 -6 -5 -6 -10 -1
-18 5 -18 13 0 8 -7 16 -15 20 -12 4 -13 2 -6 -13 10 -18 6 -31 -11 -31 -5 0
-6 5 -3 10 3 6 1 10 -4 10 -6 0 -11 -4 -11 -10 0 -5 -5 -10 -11 -10 -5 0 -7 6
-3 13 4 6 -1 5 -12 -4 -23 -20 -64 -31 -64 -18 0 12 -49 -23 -50 -35 0 -5 9
-1 19 8 12 11 21 14 26 7 3 -6 -1 -11 -9 -11 -9 0 -16 -5 -16 -11 0 -6 -6 -9
-12 -6 -7 2 -24 0 -38 -5 -37 -14 -81 -18 -75 -7 4 5 2 9 -4 9 -6 0 -8 7 -5
15 9 23 -4 18 -17 -6 -8 -15 -8 -19 0 -15 6 4 11 3 11 -2 0 -6 -11 -9 -24 -8
-13 0 -22 4 -19 9 2 4 0 7 -4 7 -12 0 -79 -49 -75 -55 1 -3 2 -11 1 -17 0 -7
-4 -3 -9 10 -9 22 -30 31 -30 12 0 -5 5 -10 11 -10 5 0 7 -4 4 -10 -3 -5 -17
-10 -30 -10 -12 0 -25 -6 -28 -14 -3 -8 -17 -22 -31 -31 -22 -15 -27 -15 -55
-1 -37 20 -51 21 -26 3 18 -14 14 -37 -6 -37 -6 0 -7 5 -4 10 3 6 2 10 -2 10
-5 0 -14 -9 -21 -20 -7 -11 -19 -20 -28 -20 -13 0 -14 3 -5 14 17 21 -3 28
-25 10 -10 -9 -13 -13 -6 -9 7 4 12 0 12 -9 0 -9 8 -16 17 -16 13 0 14 -3 5
-12 -8 -8 -15 -8 -24 0 -9 7 -19 8 -28 1 -13 -8 -13 -10 0 -19 12 -8 11 -10
-5 -10 -12 0 -27 6 -35 13 -12 10 -12 9 -3 -3 9 -11 8 -21 -2 -40 -12 -21 -14
-22 -15 -6 0 19 -1 19 -20 1 -12 -10 -19 -24 -16 -31 3 -9 -1 -11 -11 -7 -10
4 -14 2 -9 -5 3 -6 2 -13 -4 -17 -17 -10 -11 -23 13 -31 20 -7 19 -8 -13 -17
-34 -10 -34 -10 -10 -17 14 -5 19 -8 12 -9 -19 -1 -77 -64 -63 -69 16 -5 14
-19 -5 -26 -8 -3 -12 -2 -9 4 3 6 2 10 -3 10 -6 0 -13 -7 -16 -16 -3 -8 -2
-12 3 -9 5 3 12 1 16 -5 3 -5 1 -10 -5 -10 -7 0 -10 -6 -7 -14 3 -8 -1 -17 -9
-20 -8 -3 -17 0 -19 7 -3 6 -81 253 -174 547 -93 294 -179 562 -190 594 -12
33 -19 61 -17 63 1 2 120 -55 262 -125 267 -133 550 -287 758 -411 135 -80
111 -82 232 20 70 59 344 358 515 561 41 48 76 87 78 88 2 0 1 -39 -3 -87z
m-3281 -172 c19 -8 19 -8 -4 -20 -15 -8 -21 -9 -17 -2 4 6 2 11 -3 11 -6 0
-11 5 -11 10 0 12 7 12 35 1z m10 -111 c3 -5 2 -10 -4 -10 -5 0 -13 5 -16 10
-3 6 -2 10 4 10 5 0 13 -4 16 -10z m95 -45 c0 -21 -29 -31 -43 -15 -10 10 -7
12 11 7 15 -3 22 -1 22 9 0 8 2 14 5 14 3 0 5 -7 5 -15z m-143 -18 c0 -7 -13
-13 -29 -14 -27 -1 -28 0 -13 17 18 20 42 18 42 -3z m33 -31 c0 -3 -4 -8 -10
-11 -5 -3 -10 -1 -10 4 0 6 5 11 10 11 6 0 10 -2 10 -4z m166 -5 c-9 -15 -45
-20 -55 -7 -7 8 1 12 25 14 20 1 33 -2 30 -7z m-16 -31 c0 -5 -5 -10 -11 -10
-5 0 -7 5 -4 10 3 6 8 10 11 10 2 0 4 -4 4 -10z m-15 -30 c3 -5 1 -10 -4 -10
-6 0 -11 5 -11 10 0 6 2 10 4 10 3 0 8 -4 11 -10z m-35 -47 c0 -3 -3 -3 -7 0
-3 4 -13 1 -22 -5 -9 -7 -13 -8 -8 -3 4 4 -1 17 -10 28 -18 20 -18 20 15 3 17
-9 32 -19 32 -23z m234 -6 c4 4 4 -1 0 -12 -5 -11 -9 -14 -12 -7 -2 7 -10 12
-18 12 -9 0 -12 5 -9 10 5 8 11 8 19 1 7 -6 16 -8 20 -4z m-27 -34 c0 -9 -4
-10 -14 -2 -7 6 -13 12 -13 14 0 1 6 2 13 2 8 0 14 -6 14 -14z m-37 -7 c0 -3
-4 -8 -10 -11 -5 -3 -10 -1 -10 4 0 6 5 11 10 11 6 0 10 -2 10 -4z m65 -5 c3
-5 2 -12 -3 -15 -5 -3 -9 1 -9 9 0 17 3 19 12 6z m190 -20 c-6 -5 -25 10 -25
20 0 5 6 4 14 -3 8 -7 12 -15 11 -17z m2445 -1 c0 -5 -7 -7 -15 -4 -8 4 -12
10 -9 15 6 11 24 2 24 -11z m-2525 -28 c-3 -3 -11 0 -18 7 -9 10 -8 11 6 5 10
-3 15 -9 12 -12z m158 -71 c-4 -3 -11 -10 -15 -15 -4 -4 -6 1 -5 12 1 12 6 18
15 15 7 -3 10 -9 5 -12z m-313 5 c0 -2 -8 -10 -17 -17 -16 -13 -17 -12 -4 4
13 16 21 21 21 13z m280 -2 c0 -8 -19 -13 -24 -6 -3 5 1 9 9 9 8 0 15 -2 15
-3z m2515 -32 c-3 -3 -11 0 -18 7 -9 10 -8 11 6 5 10 -3 15 -9 12 -12z m-2480
-12 c-3 -5 -11 -10 -16 -10 -6 0 -7 5 -4 10 3 6 11 10 16 10 6 0 7 -4 4 -10z
m49 -47 c-10 -7 -22 -13 -27 -13 -5 0 -4 6 2 13 6 8 18 14 27 14 15 0 14 -2
-2 -14z m1716 -55 c0 -4 -4 -8 -9 -8 -6 0 -12 4 -15 8 -3 5 1 9 9 9 8 0 15 -4
15 -9z m-1418 -137 c-3 -9 -1 -12 6 -7 7 4 12 3 12 -2 0 -6 -11 -9 -24 -8 -13
0 -22 4 -19 9 2 4 -1 7 -7 7 -6 0 -9 4 -6 8 9 15 44 9 38 -7z m-589 -111 c-6
-23 -22 -37 -19 -18 2 14 15 38 21 38 2 0 1 -9 -2 -20z m590 5 c-3 -9 -8 -14
-10 -11 -3 3 -2 9 2 15 9 16 15 13 8 -4z m-563 -51 c0 -2 -7 -4 -15 -4 -8 0
-15 4 -15 10 0 5 7 7 15 4 8 -4 15 -8 15 -10z m808 4 c16 -16 15 -25 -4 -32
-14 -5 -15 -4 -4 9 10 13 9 15 -9 15 -12 0 -19 5 -16 10 8 13 18 13 33 -2z
m72 -48 c0 -5 -2 -10 -4 -10 -3 0 -8 5 -11 10 -3 6 -1 10 4 10 6 0 11 -4 11
-10z m335 -79 c-9 -8 -36 -10 -30 -2 2 4 11 8 20 8 8 0 13 -3 10 -6z m80 -21
c-3 -5 -14 -10 -23 -9 -14 0 -13 2 3 9 27 11 27 11 20 0z m-1231 -6 c13 -5 13
-8 1 -20 -18 -18 -31 -18 -16 0 9 11 9 15 -1 19 -7 3 -10 6 -6 6 3 1 13 -2 22
-5z m231 -614 c-3 -5 -12 -10 -18 -10 -7 0 -6 4 3 10 19 12 23 12 15 0z m-15
-70 c0 -5 -5 -10 -11 -10 -5 0 -7 5 -4 10 3 6 8 10 11 10 2 0 4 -4 4 -10z
m1660 -2411 c0 -5 -492 -8 -1117 -7 -615 1 -1080 4 -1033 7 141 10 2150 9
2150 0z m200 1 c0 -5 -11 -10 -25 -10 -14 0 -25 5 -25 10 0 6 11 10 25 10 14
0 25 -4 25 -10z"/>
<path d="M3665 5830 c-3 -5 -1 -10 4 -10 6 0 11 5 11 10 0 6 -2 10 -4 10 -3 0
-8 -4 -11 -10z"/>
<path d="M3786 5797 c3 -10 9 -15 12 -12 3 3 0 11 -7 18 -10 9 -11 8 -5 -6z"/>
<path d="M3842 5757 c-8 -10 -6 -13 11 -14 12 0 16 1 9 4 -6 3 -10 9 -6 14 8
14 -2 11 -14 -4z"/>
<path d="M3782 5739 c-7 -12 -11 -24 -8 -27 3 -3 6 0 6 7 0 7 4 10 8 7 4 -2 9
4 9 15 2 24 1 24 -15 -2z"/>
<path d="M3890 5736 c0 -2 7 -7 16 -10 8 -3 12 -2 9 4 -6 10 -25 14 -25 6z"/>
<path d="M4033 5713 c0 -7 2 -11 5 -8 2 2 18 -3 34 -11 44 -23 43 -12 -1 12
-28 15 -38 17 -38 7z"/>
<path d="M3817 5713 c-12 -12 -7 -22 8 -17 8 4 15 10 15 15 0 11 -14 12 -23 2z"/>
<path d="M3850 5710 c0 -5 7 -10 16 -10 8 0 12 5 9 10 -3 6 -10 10 -16 10 -5
0 -9 -4 -9 -10z"/>
<path d="M4007 5714 c-6 -10 9 -42 16 -34 3 3 1 14 -3 24 -3 11 -9 15 -13 10z"/>
<path d="M3715 5699 c-4 -6 -5 -12 -2 -15 2 -3 7 2 10 11 7 17 1 20 -8 4z"/>
<path d="M3930 5699 c0 -5 5 -7 10 -4 6 3 10 8 10 11 0 2 -4 4 -10 4 -5 0 -10
-5 -10 -11z"/>
<path d="M3774 5685 c11 -8 22 -12 25 -9 6 6 -19 24 -34 24 -5 -1 -1 -7 9 -15z"/>
<path d="M3762 5657 c18 -19 38 -22 38 -7 0 6 -4 10 -9 10 -5 0 -18 3 -28 7
-17 6 -17 6 -1 -10z"/>
<path d="M4010 5655 l-25 -14 26 1 c14 1 26 8 26 15 0 7 -1 13 -1 13 -1 -1
-12 -7 -26 -15z"/>
<path d="M3764 5616 c-18 -19 -37 -59 -26 -52 6 3 12 3 15 -1 2 -5 2 -3 1 4
-4 15 26 47 34 38 4 -3 0 -11 -8 -16 -12 -8 -12 -12 -2 -16 10 -4 10 -8 1 -19
-10 -12 -9 -13 5 -8 10 4 15 12 12 20 -5 14 21 40 31 30 3 -3 1 -6 -5 -6 -7 0
-12 -5 -12 -11 0 -6 9 -8 20 -4 12 4 20 2 20 -5 0 -6 4 -9 9 -6 5 3 12 -2 15
-11 6 -14 9 -15 16 -4 9 15 -9 42 -23 34 -5 -3 -19 5 -33 18 -29 27 -55 33
-70 15z"/>
<path d="M4145 5581 c-3 -5 -2 -12 3 -15 5 -3 9 1 9 9 0 17 -3 19 -12 6z"/>
<path d="M4220 5540 c-9 -6 -10 -10 -3 -10 6 0 15 5 18 10 8 12 4 12 -15 0z"/>
<path d="M3786 5532 c-3 -4 4 -9 15 -9 23 -2 25 3 4 10 -8 4 -16 3 -19 -1z"/>
<path d="M4158 5503 c-23 -27 -33 -47 -20 -39 7 4 12 2 12 -4 0 -6 5 -8 11 -4
8 5 8 9 -1 14 -8 5 -7 12 5 24 10 9 15 19 13 22 -3 2 -12 -4 -20 -13z"/>
<path d="M4196 5512 c-3 -4 4 -9 15 -9 23 -2 25 3 4 10 -8 4 -16 3 -19 -1z"/>
<path d="M4250 5481 c0 -5 7 -11 15 -15 8 -3 15 -1 15 3 0 5 -7 11 -15 15 -8
3 -15 1 -15 -3z"/>
<path d="M3797 5469 c7 -7 15 -10 18 -7 3 3 -2 9 -12 12 -14 6 -15 5 -6 -5z"/>
<path d="M4202 5450 c-21 -20 -37 -27 -29 -12 3 4 -6 7 -19 7 -13 0 -26 -6
-29 -13 -3 -7 0 -10 5 -7 6 3 10 1 10 -5 0 -6 4 -8 10 -5 5 3 19 1 31 -6 12
-6 19 -7 16 -2 -3 5 5 21 19 36 29 31 18 37 -14 7z"/>
<path d="M3826 5437 c3 -10 9 -15 12 -12 3 3 0 11 -7 18 -10 9 -11 8 -5 -6z"/>
<path d="M4265 5440 c3 -5 8 -10 11 -10 2 0 4 5 4 10 0 6 -5 10 -11 10 -5 0
-7 -4 -4 -10z"/>
<path d="M4210 5415 c0 -15 11 -19 39 -15 8 1 18 -4 22 -12 7 -10 9 -10 9 2 0
13 1 13 11 0 9 -13 10 -13 6 0 -2 8 -8 15 -13 16 -5 0 -17 4 -26 8 -9 4 -22 4
-29 0 -8 -4 -9 -3 -5 4 4 7 2 12 -3 12 -6 0 -11 -7 -11 -15z"/>
<path d="M4306 5421 c-3 -4 1 -17 10 -27 14 -18 15 -18 5 2 -6 12 -7 24 -4 28
3 3 4 6 0 6 -3 0 -8 -4 -11 -9z"/>
<path d="M3910 5399 c0 -5 5 -7 10 -4 6 3 10 8 10 11 0 2 -4 4 -10 4 -5 0 -10
-5 -10 -11z"/>
<path d="M4350 5389 c0 -5 4 -8 9 -5 9 6 26 -22 23 -36 -1 -5 3 -8 8 -8 15 0
12 17 -7 40 -19 22 -33 26 -33 9z"/>
<path d="M4450 5332 c0 -5 7 -9 15 -9 8 0 12 4 9 9 -3 4 -9 8 -15 8 -5 0 -9
-4 -9 -8z"/>
<path d="M3920 5290 c-9 -6 -10 -10 -3 -10 6 0 15 5 18 10 8 12 4 12 -15 0z"/>
<path d="M4562 5231 c-10 -6 -10 -10 2 -20 9 -7 21 -11 28 -8 8 4 7 6 -4 6
-11 1 -15 6 -12 16 7 17 4 18 -14 6z"/>
<path d="M4618 5163 c7 -3 16 -2 19 1 4 3 -2 6 -13 5 -11 0 -14 -3 -6 -6z"/>
<path d="M4050 5140 c0 -5 5 -10 11 -10 5 0 7 5 4 10 -3 6 -8 10 -11 10 -2 0
-4 -4 -4 -10z"/>
<path d="M4650 5136 c0 -9 5 -16 10 -16 6 0 10 -5 10 -11 0 -5 -4 -8 -9 -5
-16 10 -20 -22 -5 -35 12 -10 13 -9 8 6 -5 11 -3 16 2 12 16 -9 15 40 -1 53
-12 10 -15 9 -15 -4z"/>
<path d="M4692 5075 c10 -10 49 -14 43 -4 -4 5 -16 9 -27 9 -12 0 -19 -2 -16
-5z"/>
<path d="M4947 4905 c-4 -8 -3 -16 1 -19 4 -3 9 4 9 15 2 23 -3 25 -10 4z"/>
<path d="M4965 4870 c-3 -5 1 -10 10 -10 9 0 13 5 10 10 -3 6 -8 10 -10 10 -2
0 -7 -4 -10 -10z"/>
<path d="M5111 4794 c0 -11 3 -14 6 -6 3 7 2 16 -1 19 -3 4 -6 -2 -5 -13z"/>
<path d="M5220 4740 c-8 -5 -11 -12 -7 -16 4 -4 13 -2 19 4 15 15 7 24 -12 12z"/>
<path d="M6010 6716 c0 -13 397 -262 405 -254 6 5 -171 122 -290 193 -100 59
-115 67 -115 61z"/>
<path d="M6600 6248 c106 -91 379 -295 408 -304 42 -13 -87 90 -278 222 -118
82 -159 108 -130 82z"/>
<path d="M6602 5679 c-8 -12 -9 -18 -3 -14 6 3 11 1 11 -4 0 -6 -4 -11 -10
-11 -5 0 -10 -5 -10 -12 0 -6 9 -3 21 8 11 10 16 20 10 22 -5 2 -7 10 -4 18 8
21 0 17 -15 -7z"/>
<path d="M6640 5670 c0 -5 5 -10 10 -10 6 0 10 5 10 10 0 6 -4 10 -10 10 -5 0
-10 -4 -10 -10z"/>
<path d="M6563 5658 c-13 -21 -12 -37 2 -31 8 2 13 13 12 24 -2 22 -3 23 -14
7z"/>
<path d="M6503 5614 c0 -9 4 -11 12 -4 7 5 14 9 16 7 2 -1 3 0 1 2 -7 11 -29
7 -29 -5z"/>
<path d="M6583 5619 c-42 -12 -42 -16 0 -15 20 1 34 6 34 13 0 7 -1 13 -1 12
-1 0 -16 -5 -33 -10z"/>
<path d="M6516 5592 c-3 -5 1 -9 9 -9 8 0 12 4 9 9 -3 4 -7 8 -9 8 -2 0 -6 -4
-9 -8z"/>
<path d="M6570 5574 c0 -8 -4 -12 -10 -9 -5 3 -10 1 -10 -4 0 -6 5 -11 11 -11
6 0 8 -7 5 -16 -3 -8 -2 -13 3 -10 8 5 13 66 5 66 -2 0 -4 -7 -4 -16z"/>
<path d="M6516 5532 c-2 -4 4 -8 14 -8 10 0 16 4 14 8 -3 4 -9 8 -14 8 -5 0
-11 -4 -14 -8z"/>
<path d="M6511 5497 c-6 -8 -8 -17 -4 -20 3 -4 2 -7 -4 -7 -5 0 -10 -6 -10
-13 0 -8 6 -14 13 -14 7 0 11 4 9 8 -8 11 6 40 16 33 5 -3 6 2 3 10 -7 19 -9
19 -23 3z"/>
<path d="M6467 5139 c-4 -16 -3 -19 5 -11 6 6 17 8 24 5 8 -3 14 -1 14 5 0 8
-22 22 -35 22 -1 0 -5 -10 -8 -21z"/>
<path d="M6190 5039 c0 -7 -11 -9 -30 -5 -18 3 -30 1 -30 -5 0 -6 5 -7 10 -4
6 3 10 2 10 -3 0 -17 53 -7 56 11 1 9 -2 17 -7 17 -5 0 -9 -5 -9 -11z"/>
</g>
  </g>
</svg>
